<svg version="1.1" id="Layer_1" xmlns="http://www.w3.org/2000/svg" xmlns:xlink="http://www.w3.org/1999/xlink" x="0px" y="0px" width="100%" viewBox="0 0 745 190" enable-background="new 0 0 745 190" xml:space="preserve">
<path fill="none" opacity="1.000000" stroke="#000000" stroke-linecap="round" stroke-linejoin="round" stroke-width="6.000000" d="
M658.500000,55.000000 
	C637.222839,57.831932 616.099854,61.551052 594.972839,65.348785 
	C575.437744,68.860344 555.935852,72.510147 536.512085,76.558121 
	C523.295349,79.312531 510.202637,83.026131 496.953979,85.222374 
	C468.217743,89.986000 440.263611,97.861191 412.010803,104.545685 
	C397.615753,107.951485 382.978058,110.850082 369.128143,115.854637 
	C360.276672,119.053032 353.331055,115.087448 346.069092,113.229881 
	C319.084747,106.327454 292.100830,99.428284 264.992432,93.032089 
	C245.040924,88.324554 224.925659,84.225304 205.063614,79.246231 
	C184.359940,74.056183 163.415756,70.457939 142.518326,66.405479 
	C124.910965,62.991020 107.259056,59.982361 89.517197,57.382648 
	C84.183151,56.601048 78.874741,55.568333 73.500000,55.000000 
" data-index="0" style="opacity: 1;"></path>
</svg>